# xmcd CD database file
#
# Track frame offsets:
#	150
#	12389
#	24297
#	36117
#	50597
#	63846
#	77662
#	92818
#	107163
#	124772
#	134034
#	145555
#	164044
#	176039
#	187180
#
# Disc length: 2650 seconds
#
# Revision: 0
# Processed by: cddbd v1.5.2PL0 Copyright (c) Steve Scherf et al.
# Submitted via: CDex 1.60beta1-cs1
#
DISCID=d20a580f
DTITLE=Various Artist - Classic Country CD 2
DYEAR=1900
DGENRE=Country
TTITLE0=Crazy  - (Patsy Cline)
TTITLE1=Funny Face - (Donna Fargo)
TTITLE2=The End of the World - (Skeeter Davis)
TTITLE3=Satin Sheets - (Jeanne Pruett)
TTITLE4=I Will Always Love You - (Dolly Parton)
TTITLE5=Whats Your Mamas Name - (Tanya Tucker)
TTITLE6=Im Not Lisa - (Jessi Colter)
TTITLE7=Tennessee Flat Top Box - (Rosanne Cash)
TTITLE8=Blue Bayou - (Linda Ronstadt)
TTITLE9=Snowbird - (Liv Maessen)
TTITLE10=Oh Boy - (Diana Trask)
TTITLE11=The Sweetest Thing (Ive Ever Known) - (Juice Newton)
TTITLE12=Break It To Me Gently - (Brenda Lee)
TTITLE13=A Little Bit In Love - (Patty Loveless)
TTITLE14=Cant Even Get the Blues - (Reba McEntire)
EXTD=
EXTT0=
EXTT1=
EXTT2=
EXTT3=
EXTT4=
EXTT5=
EXTT6=
EXTT7=
EXTT8=
EXTT9=
EXTT10=
EXTT11=
EXTT12=
EXTT13=
EXTT14=
PLAYORDER=
